<svg width="33" height="33" viewBox="0 0 33 33" fill="none" xmlns="http://www.w3.org/2000/svg">
<circle cx="16.5" cy="16.5" r="16.5" fill="#30DF2C"/>
<path d="M21.1251 18.2844C20.6213 18.176 20.2228 18.4099 19.8699 18.6142C19.5085 18.8247 18.8214 19.3821 18.4275 19.2395C16.4108 18.4091 14.5141 16.644 13.693 14.6193C13.5483 14.217 14.1032 13.5254 14.3121 13.1598C14.5149 12.8058 14.7439 12.4035 14.6395 11.896C14.5451 11.4399 13.3239 9.88604 12.8921 9.46113C12.6073 9.18046 12.3156 9.02609 12.0161 9.00114C10.8901 8.9528 9.63264 10.4552 9.41209 10.8146C8.85956 11.581 8.86265 12.6008 9.42138 13.8373C10.7679 17.1586 15.8606 22.1709 19.1944 23.5681C19.8096 23.8558 20.3722 24 20.8775 24C21.372 24 21.8123 23.862 22.1907 23.5883C22.4763 23.4238 24.0402 22.1039 23.9992 20.9477C23.9744 20.653 23.8204 20.3583 23.5434 20.0729C23.1217 19.6371 21.5778 18.3795 21.1251 18.2844Z" fill="white"/>
</svg>
